<svg width="162" height="197" viewBox="0 0 162 197" fill="none" xmlns="http://www.w3.org/2000/svg">
<path d="M144.88 9.922C134.564 11.603 131.596 16.242 131.596 16.242C131.596 16.242 118.445 11.736 107.739 11.854C97.039 11.736 83.889 16.242 83.889 16.242C83.889 16.242 80.924 11.602 70.6 9.922C60.288 8.25 53.714 0 53.714 0C53.714 0 57.196 10.059 64.031 15.089C70.864 20.118 70.223 28.621 67.768 33.264C65.321 37.91 63.132 41.266 63.252 46.165C63.338 49.286 64.91 57.49 71.01 62.894C53.017 74.382 23.382 94.794 12.729 167.111C5.868 174.396 -20.63 219.744 34.257 179.867C57.841 185.016 119.646 190.763 145.422 122.702C153.989 100.363 151.598 77.599 143.291 63.865C150.378 58.527 152.141 49.472 152.227 46.165C152.36 41.266 150.166 37.909 147.715 33.264C145.265 28.621 144.622 20.119 151.455 15.089C158.292 10.059 161.774 0 161.774 0C161.774 0 155.197 8.25 144.88 9.922Z" fill="white"/>
</svg>
